<?xml version="1.0" encoding="UTF-8"?>
<svg id="Layer_1" data-name="Layer 1" xmlns="http://www.w3.org/2000/svg" version="1.1" viewBox="0 0 165 36">
  <defs>
    <style>
      .cls-1 {
        fill: #fff;
        stroke-width: 0px;
      }
    </style>
  </defs>
  <g>
    <g>
      <path class="cls-1" d="M45.1,16.3h6.7v2.3h-6.7v2.4h7.3v2.8h-11.5v-12.6h11.3v2.8h-7.1v2.3Z"/>
      <path class="cls-1" d="M67.1,14l-7.5,6.7h0c0,.1,7.5.1,7.5.1v2.9h-12.8v-2.8l7.4-6.7h0c0-.1-6.9-.1-6.9-.1v-2.9h12.4v2.8Z"/>
    </g>
    <g>
      <path class="cls-1" d="M73.5,11.7h11.9v1.3h-10.3v3.9h9.9v1.3h-9.9v4.2h10.3v1.3h-12v-12.1Z"/>
      <path class="cls-1" d="M87.4,20.8h1.3v.4c0,.5.2.9.5,1.1.3.2.8.3,1.6.3h3.1c.5,0,1,0,1.4,0,.4,0,.7,0,.9-.2.2,0,.4-.2.5-.4,0-.2.1-.4.1-.8h0c0-.3,0-.4,0-.6,0-.2-.1-.3-.3-.4-.1-.1-.3-.2-.6-.2-.3,0-.6,0-1,0h-4.4c-1,0-1.7-.2-2.2-.5-.4-.4-.6-.9-.6-1.8v-.5c0-.3,0-.7.2-.9s.3-.5.7-.7c.3-.2.8-.3,1.3-.4s1.3-.1,2.2-.1h2.2c.8,0,1.5,0,2,.2.5.1.9.3,1.1.5.3.2.4.4.5.7,0,.3.1.5.1.8v.5h-1.3c0-.4,0-.7-.2-.8-.1-.2-.3-.3-.5-.4-.2,0-.5-.1-.8-.2-.3,0-.7,0-1,0h-2.5c-.5,0-.9,0-1.3,0-.3,0-.6,0-.8.2-.2,0-.3.2-.4.4,0,.2-.1.3-.1.6v.3c0,.2,0,.3,0,.5,0,.1.1.2.2.3.1,0,.3.2.5.2.2,0,.5,0,.9,0h3.8c.5,0,1,0,1.5,0s.8.2,1.1.3c.3.2.6.4.7.8.2.3.3.8.3,1.4h0c0,.6-.1,1.1-.4,1.4-.3.3-.6.6-1,.7s-.8.3-1.3.3c-.5,0-.9,0-1.4,0h-2.7c-.5,0-1.1,0-1.5,0s-.9-.1-1.3-.3c-.4-.2-.7-.4-.9-.8-.2-.4-.3-.8-.3-1.5v-.5Z"/>
      <path class="cls-1" d="M100.5,15.2h1.3v1.4h0c.2-.5.6-.9,1.1-1.1.5-.2,1.1-.4,1.8-.4h2.7c.5,0,1,0,1.5.2.5.1.9.3,1.3.5.4.3.7.6.9,1.1.2.5.3,1.1.3,1.8v1.5c0,.7,0,1.3-.2,1.7-.2.5-.4.9-.7,1.1-.3.3-.8.5-1.3.6-.5.1-1.2.2-1.9.2h-2.8c-.8,0-1.3-.1-1.7-.3-.4-.2-.6-.5-.8-1h0v4.1h-1.4v-11.5ZM110,18.7c0-.4,0-.8-.1-1.1,0-.3-.2-.6-.4-.8-.2-.2-.5-.4-.8-.5-.3-.1-.8-.2-1.3-.2h-2.9c-1,0-1.6.2-2,.7-.4.5-.6,1-.6,1.8v1.6c0,.5,0,.9.2,1.2.2.3.4.6.6.7.3.2.5.3.9.3.3,0,.7,0,1.1,0h2.6c.4,0,.8,0,1.1,0,.3,0,.6-.2.8-.3.2-.2.4-.4.5-.7.1-.3.2-.7.2-1.2v-1.7Z"/>
      <path class="cls-1" d="M113.5,18.6c0-.7.1-1.3.4-1.7.2-.4.6-.8,1-1.1.4-.3.9-.4,1.5-.5.6,0,1.2-.1,1.9-.1h2.1c.7,0,1.3,0,1.9.1s1.1.3,1.5.5c.4.3.7.6,1,1.1.2.4.4,1,.4,1.7v1.9c0,.7-.1,1.3-.4,1.7-.2.4-.6.8-1,1.1-.4.3-.9.4-1.5.5-.6,0-1.2.1-1.9.1h-2.1c-.7,0-1.3,0-1.9-.1-.6,0-1.1-.3-1.5-.5-.4-.3-.7-.6-1-1.1-.2-.4-.4-1-.4-1.7v-1.9ZM123.6,18.7c0-.5,0-.9-.2-1.2-.1-.3-.3-.5-.6-.7-.3-.2-.6-.3-.9-.4-.4,0-.7,0-1.1,0h-2.9c-.4,0-.8,0-1.2,0-.3,0-.6.2-.9.4-.3.2-.4.4-.6.7-.1.3-.2.7-.2,1.2v1.7c0,.5,0,.9.2,1.2.1.3.3.5.6.7.3.2.6.3.9.4.3,0,.7,0,1.2,0h2.9c.4,0,.8,0,1.1,0,.4,0,.7-.2.9-.4.3-.2.4-.4.6-.7.1-.3.2-.7.2-1.2v-1.7Z"/>
      <path class="cls-1" d="M127.6,15.2h1.3v1.2h0c.1-.3.3-.5.5-.7.2-.2.4-.3.6-.4.2-.1.5-.2.7-.2.3,0,.5,0,.7,0h1.4c.7,0,1.2,0,1.7.2.5.1.8.3,1.1.5.3.2.5.5.6.9.1.4.2.8.2,1.4v1h-1.3v-.4c0-.5,0-.9-.1-1.3,0-.3-.2-.6-.4-.7-.2-.2-.5-.3-.9-.3-.4,0-.9,0-1.6,0h-.9c-.4,0-.7,0-1,.2-.3.1-.5.3-.7.5-.2.2-.3.4-.4.7,0,.3-.1.5-.1.8v5.4h-1.4v-8.6Z"/>
      <path class="cls-1" d="M139,16.4h-1.9v-1.2h1.9v-2h1.4v2h5.7v1.2h-5.7v4.3c0,.4,0,.7.1,1,0,.3.2.5.4.6.2.2.4.3.7.3.3,0,.6.1,1,.1h.5c.5,0,.9,0,1.2,0,.3,0,.5-.2.7-.3.2-.2.3-.4.3-.7,0-.3,0-.7,0-1.1v-.6h1.2v.9c0,.4,0,.8,0,1.2,0,.4-.2.7-.4,1-.2.3-.5.5-1,.7s-1,.2-1.8.2h-.8c-.7,0-1.2,0-1.7-.2s-.8-.4-1-.6c-.2-.3-.4-.5-.5-.9,0-.3-.1-.7-.1-1v-4.8Z"/>
      <path class="cls-1" d="M147.9,20.8h1.3v.4c0,.5.2.9.5,1.1.3.2.8.3,1.6.3h3.1c.5,0,1,0,1.4,0,.4,0,.7,0,.9-.2.2,0,.4-.2.5-.4,0-.2.1-.4.1-.8h0c0-.3,0-.4,0-.6,0-.2-.1-.3-.3-.4-.1-.1-.3-.2-.6-.2-.3,0-.6,0-1,0h-4.4c-1,0-1.7-.2-2.2-.5-.4-.4-.6-.9-.6-1.8v-.5c0-.3,0-.7.2-.9s.3-.5.7-.7c.3-.2.8-.3,1.3-.4.6,0,1.3-.1,2.2-.1h2.2c.8,0,1.5,0,2,.2.5.1.9.3,1.1.5.3.2.4.4.5.7,0,.3.1.5.1.8v.5h-1.3c0-.4,0-.7-.2-.8-.1-.2-.3-.3-.5-.4-.2,0-.5-.1-.8-.2-.3,0-.7,0-1,0h-2.5c-.5,0-.9,0-1.3,0-.3,0-.6,0-.8.2-.2,0-.3.2-.4.4,0,.2-.1.3-.1.6v.3c0,.2,0,.3,0,.5,0,.1.1.2.2.3.1,0,.3.2.5.2.2,0,.5,0,.9,0h3.8c.5,0,1,0,1.5,0,.4,0,.8.2,1.1.3.3.2.6.4.7.8.2.3.3.8.3,1.4h0c0,.6-.1,1.1-.4,1.4-.3.3-.6.6-1,.7-.4.2-.8.3-1.3.3s-.9,0-1.4,0h-2.6c-.5,0-1.1,0-1.5,0s-.9-.1-1.3-.3c-.4-.2-.7-.4-.9-.8-.2-.4-.3-.8-.3-1.5v-.5Z"/>
    </g>
  </g>
  <polygon class="cls-1" points="32.1 16.1 32.1 16.1 32 16.1 20.3 4.4 20.3 4.4 20.3 4.4 17.5 7.1 17.5 7.1 13.7 10.9 10.7 13.9 16.2 13.9 20.3 9.8 23.2 12.8 26.7 16.2 8.4 16.3 6.6 18 6.6 18 20.3 31.6 22.4 29.5 23 28.9 29.7 22.2 24.2 22.2 20.3 26.2 14 20 31.9 20 32 19.9 33.1 18.8 33.9 18 32.1 16.1"/>
</svg>